<?xml version="1.0" encoding="UTF-8" standalone="no"?>
<!DOCTYPE svg PUBLIC "-//W3C//DTD SVG 1.0//EN" "http://www.w3.org/TR/2001/PR-SVG-20010719/DTD/svg10.dtd">
<svg width="30cm" height="34cm" viewBox="-154 -195 595 665" xmlns="http://www.w3.org/2000/svg" xmlns:xlink="http://www.w3.org/1999/xlink">
  <g>
    <rect style="fill: #ffffff" x="-128" y="388" width="233.9" height="18"/>
    <rect style="fill: none; fill-opacity:0; stroke-width: 2; stroke: #000000" x="-128" y="388" width="233.9" height="18"/>
    <text font-size="11.2" style="fill: #000000;text-anchor:middle;font-family:sans-serif;font-style:normal;font-weight:700" x="-11.05" y="402">product</text>
    <rect style="fill: #ffffff" x="-128" y="406" width="233.9" height="52"/>
    <rect style="fill: none; fill-opacity:0; stroke-width: 2; stroke: #000000" x="-128" y="406" width="233.9" height="52"/>
    <polygon style="fill: #000000" points="-125,416 -123,419 -121,416 -123,413 "/>
    <text font-size="12.8" style="fill: #000000;text-anchor:start;font-family:monospace;font-style:normal;font-weight:normal" x="-119" y="422">(pk) product_id</text>
    <text font-size="12.8" style="fill: #000000;text-anchor:start;font-family:monospace;font-style:normal;font-weight:normal" x="14.2" y="422">INTEGER</text>
    <ellipse style="fill: #000000" cx="-123" cy="432" rx="2" ry="2"/>
    <text font-size="12.8" style="fill: #000000;text-anchor:start;font-family:monospace;font-style:normal;font-weight:normal" x="-119" y="438">name</text>
    <text font-size="12.8" style="fill: #000000;text-anchor:start;font-family:monospace;font-style:normal;font-weight:normal" x="14.2" y="438">VARCHAR(80)</text>
    <ellipse style="fill: #000000" cx="-123" cy="448" rx="2" ry="2"/>
    <text font-size="12.8" style="fill: #000000;text-anchor:start;font-family:monospace;font-style:normal;font-weight:normal" x="-119" y="454">default_lifetime</text>
    <text font-size="12.8" style="fill: #000000;text-anchor:start;font-family:monospace;font-style:normal;font-weight:normal" x="14.2" y="454">INTEGER</text>
  </g>
  <g>
    <rect style="fill: #ffffff" x="215" y="125" width="226.2" height="18"/>
    <rect style="fill: none; fill-opacity:0; stroke-width: 2; stroke: #000000" x="215" y="125" width="226.2" height="18"/>
    <text font-size="11.2" style="fill: #000000;text-anchor:middle;font-family:sans-serif;font-style:normal;font-weight:700" x="328.1" y="139">storage</text>
    <rect style="fill: #ffffff" x="215" y="143" width="226.2" height="52"/>
    <rect style="fill: none; fill-opacity:0; stroke-width: 2; stroke: #000000" x="215" y="143" width="226.2" height="52"/>
    <polygon style="fill: #000000" points="218,153 220,156 222,153 220,150 "/>
    <text font-size="12.8" style="fill: #000000;text-anchor:start;font-family:monospace;font-style:normal;font-weight:normal" x="224" y="159">(pk) storage_id</text>
    <text font-size="12.8" style="fill: #000000;text-anchor:start;font-family:monospace;font-style:normal;font-weight:normal" x="349.5" y="159">INTEGER</text>
    <ellipse style="fill: #000000" cx="220" cy="169" rx="2" ry="2"/>
    <text font-size="12.8" style="fill: #000000;text-anchor:start;font-family:monospace;font-style:normal;font-weight:normal" x="224" y="175">(fk) home_id</text>
    <text font-size="12.8" style="fill: #000000;text-anchor:start;font-family:monospace;font-style:normal;font-weight:normal" x="349.5" y="175">INTEGER</text>
    <ellipse style="fill: #000000" cx="220" cy="185" rx="2" ry="2"/>
    <text font-size="12.8" style="fill: #000000;text-anchor:start;font-family:monospace;font-style:normal;font-weight:normal" x="224" y="191">name</text>
    <text font-size="12.8" style="fill: #000000;text-anchor:start;font-family:monospace;font-style:normal;font-weight:normal" x="349.5" y="191">VARCHAR(40)</text>
  </g>
  <g>
    <rect style="fill: #ffffff" x="-153" y="-194" width="280.1" height="18"/>
    <rect style="fill: none; fill-opacity:0; stroke-width: 2; stroke: #000000" x="-153" y="-194" width="280.1" height="18"/>
    <text font-size="11.2" style="fill: #000000;text-anchor:middle;font-family:sans-serif;font-style:normal;font-weight:700" x="-12.95" y="-180">account</text>
    <rect style="fill: #ffffff" x="-153" y="-176" width="280.1" height="116"/>
    <rect style="fill: none; fill-opacity:0; stroke-width: 2; stroke: #000000" x="-153" y="-176" width="280.1" height="116"/>
    <polygon style="fill: #000000" points="-150,-166 -148,-163 -146,-166 -148,-169 "/>
    <text font-size="12.8" style="fill: #000000;text-anchor:start;font-family:monospace;font-style:normal;font-weight:normal" x="-144" y="-160">(pk) user_id</text>
    <text font-size="12.8" style="fill: #000000;text-anchor:start;font-family:monospace;font-style:normal;font-weight:normal" x="27.7" y="-160">INTEGER</text>
    <ellipse style="fill: #000000" cx="-148" cy="-150" rx="2" ry="2"/>
    <text font-size="12.8" style="fill: #000000;text-anchor:start;font-family:monospace;font-style:normal;font-weight:normal" x="-144" y="-144">name</text>
    <text font-size="12.8" style="fill: #000000;text-anchor:start;font-family:monospace;font-style:normal;font-weight:normal" x="27.7" y="-144">VARCHAR(80)</text>
    <ellipse style="fill: #000000" cx="-148" cy="-134" rx="2" ry="2"/>
    <text font-size="12.8" style="fill: #000000;text-anchor:start;font-family:monospace;font-style:normal;font-weight:normal" x="-144" y="-128">login</text>
    <text font-size="12.8" style="fill: #000000;text-anchor:start;font-family:monospace;font-style:normal;font-weight:normal" x="27.7" y="-128">VARCHAR(40)</text>
    <ellipse style="fill: #000000" cx="-148" cy="-118" rx="2" ry="2"/>
    <text font-size="12.8" style="fill: #000000;text-anchor:start;font-family:monospace;font-style:normal;font-weight:normal" x="-144" y="-112">password</text>
    <text font-size="12.8" style="fill: #000000;text-anchor:start;font-family:monospace;font-style:normal;font-weight:normal" x="27.7" y="-112">VARCHAR(128)</text>
    <ellipse style="fill: #000000" cx="-148" cy="-102" rx="2" ry="2"/>
    <text font-size="12.8" style="fill: #000000;text-anchor:start;font-family:monospace;font-style:normal;font-weight:normal" x="-144" y="-96">email</text>
    <text font-size="12.8" style="fill: #000000;text-anchor:start;font-family:monospace;font-style:normal;font-weight:normal" x="27.7" y="-96">VARCHAR(80)</text>
    <ellipse style="fill: #000000" cx="-148" cy="-86" rx="2" ry="2"/>
    <text font-size="12.8" style="fill: #000000;text-anchor:start;font-family:monospace;font-style:normal;font-weight:normal" x="-144" y="-80">superuser</text>
    <text font-size="12.8" style="fill: #000000;text-anchor:start;font-family:monospace;font-style:normal;font-weight:normal" x="27.7" y="-80">BOOLEAN</text>
    <ellipse style="fill: #000000" cx="-148" cy="-70" rx="2" ry="2"/>
    <text font-size="12.8" style="fill: #000000;text-anchor:start;font-family:monospace;font-style:normal;font-weight:normal" x="-144" y="-64">force_password_change</text>
    <text font-size="12.8" style="fill: #000000;text-anchor:start;font-family:monospace;font-style:normal;font-weight:normal" x="27.7" y="-64">BOOLEAN</text>
  </g>
  <g>
    <rect style="fill: #ffffff" x="-113" y="118" width="203.1" height="18"/>
    <rect style="fill: none; fill-opacity:0; stroke-width: 2; stroke: #000000" x="-113" y="118" width="203.1" height="18"/>
    <text font-size="11.2" style="fill: #000000;text-anchor:middle;font-family:sans-serif;font-style:normal;font-weight:700" x="-11.45" y="132">home</text>
    <rect style="fill: #ffffff" x="-113" y="136" width="203.1" height="36"/>
    <rect style="fill: none; fill-opacity:0; stroke-width: 2; stroke: #000000" x="-113" y="136" width="203.1" height="36"/>
    <polygon style="fill: #000000" points="-110,146 -108,149 -106,146 -108,143 "/>
    <text font-size="12.8" style="fill: #000000;text-anchor:start;font-family:monospace;font-style:normal;font-weight:normal" x="-104" y="152">(pk) home_id</text>
    <text font-size="12.8" style="fill: #000000;text-anchor:start;font-family:monospace;font-style:normal;font-weight:normal" x="-1.6" y="152">INTEGER</text>
    <ellipse style="fill: #000000" cx="-108" cy="162" rx="2" ry="2"/>
    <text font-size="12.8" style="fill: #000000;text-anchor:start;font-family:monospace;font-style:normal;font-weight:normal" x="-104" y="168">name</text>
    <text font-size="12.8" style="fill: #000000;text-anchor:start;font-family:monospace;font-style:normal;font-weight:normal" x="-1.6" y="168">VARCHAR(80)</text>
  </g>
  <g>
    <rect style="fill: #ffffff" x="231" y="369" width="195.4" height="18"/>
    <rect style="fill: none; fill-opacity:0; stroke-width: 2; stroke: #000000" x="231" y="369" width="195.4" height="18"/>
    <text font-size="11.2" style="fill: #000000;text-anchor:middle;font-family:sans-serif;font-style:normal;font-weight:700" x="328.7" y="383">item</text>
    <rect style="fill: #ffffff" x="231" y="387" width="195.4" height="84"/>
    <rect style="fill: none; fill-opacity:0; stroke-width: 2; stroke: #000000" x="231" y="387" width="195.4" height="84"/>
    <polygon style="fill: #000000" points="234,397 236,400 238,397 236,394 "/>
    <text font-size="12.8" style="fill: #000000;text-anchor:start;font-family:monospace;font-style:normal;font-weight:normal" x="240" y="403">(pk) item_id</text>
    <text font-size="12.8" style="fill: #000000;text-anchor:start;font-family:monospace;font-style:normal;font-weight:normal" x="365.5" y="403">INTEGER</text>
    <ellipse style="fill: #000000" cx="236" cy="413" rx="2" ry="2"/>
    <text font-size="12.8" style="fill: #000000;text-anchor:start;font-family:monospace;font-style:normal;font-weight:normal" x="240" y="419">(fk) product_id</text>
    <text font-size="12.8" style="fill: #000000;text-anchor:start;font-family:monospace;font-style:normal;font-weight:normal" x="365.5" y="419">INTEGER</text>
    <ellipse style="fill: #000000" cx="236" cy="429" rx="2" ry="2"/>
    <text font-size="12.8" style="fill: #000000;text-anchor:start;font-family:monospace;font-style:normal;font-weight:normal" x="240" y="435">(fk) storage_id</text>
    <text font-size="12.8" style="fill: #000000;text-anchor:start;font-family:monospace;font-style:normal;font-weight:normal" x="365.5" y="435">INTEGER</text>
    <ellipse style="fill: #000000" cx="236" cy="445" rx="2" ry="2"/>
    <text font-size="12.8" style="fill: #000000;text-anchor:start;font-family:monospace;font-style:normal;font-weight:normal" x="240" y="451">quantity</text>
    <text font-size="12.8" style="fill: #000000;text-anchor:start;font-family:monospace;font-style:normal;font-weight:normal" x="365.5" y="451">INTEGER</text>
    <ellipse style="fill: #000000" cx="236" cy="461" rx="2" ry="2"/>
    <text font-size="12.8" style="fill: #000000;text-anchor:start;font-family:monospace;font-style:normal;font-weight:normal" x="240" y="467">best_before</text>
    <text font-size="12.8" style="fill: #000000;text-anchor:start;font-family:monospace;font-style:normal;font-weight:normal" x="365.5" y="467">DATE</text>
  </g>
  <g>
    <rect style="fill: #ffffff" x="-114" y="-5" width="203.1" height="18"/>
    <rect style="fill: none; fill-opacity:0; stroke-width: 2; stroke: #000000" x="-114" y="-5" width="203.1" height="18"/>
    <text font-size="11.2" style="fill: #000000;text-anchor:middle;font-family:sans-serif;font-style:normal;font-weight:700" x="-12.45" y="9">home_user</text>
    <rect style="fill: #ffffff" x="-114" y="13" width="203.1" height="52"/>
    <rect style="fill: none; fill-opacity:0; stroke-width: 2; stroke: #000000" x="-114" y="13" width="203.1" height="52"/>
    <polygon style="fill: #000000" points="-111,23 -109,26 -107,23 -109,20 "/>
    <text font-size="12.8" style="fill: #000000;text-anchor:start;font-family:monospace;font-style:normal;font-weight:normal" x="-105" y="29">(pk) homeuser_id</text>
    <text font-size="12.8" style="fill: #000000;text-anchor:start;font-family:monospace;font-style:normal;font-weight:normal" x="28.2" y="29">INTEGER</text>
    <ellipse style="fill: #000000" cx="-109" cy="39" rx="2" ry="2"/>
    <text font-size="12.8" style="fill: #000000;text-anchor:start;font-family:monospace;font-style:normal;font-weight:normal" x="-105" y="45">(fk) home_id</text>
    <text font-size="12.8" style="fill: #000000;text-anchor:start;font-family:monospace;font-style:normal;font-weight:normal" x="28.2" y="45">INTEGER</text>
    <ellipse style="fill: #000000" cx="-109" cy="55" rx="2" ry="2"/>
    <text font-size="12.8" style="fill: #000000;text-anchor:start;font-family:monospace;font-style:normal;font-weight:normal" x="-105" y="61">(fk) user_id</text>
    <text font-size="12.8" style="fill: #000000;text-anchor:start;font-family:monospace;font-style:normal;font-weight:normal" x="28.2" y="61">INTEGER</text>
  </g>
  <g>
    <polyline style="fill: none; fill-opacity:0; stroke-width: 2; stroke: #000000" points="-12.95,-60 -12.95,-32.5 -12.45,-32.5 -12.45,-5 "/>
    <text font-size="9.6" style="fill: #000000;text-anchor:start;font-family:monospace;font-style:normal;font-weight:normal" x="-8.95" y="-48">1</text>
    <text font-size="9.6" style="fill: #000000;text-anchor:start;font-family:monospace;font-style:normal;font-weight:normal" x="-8.45" y="-9">*</text>
  </g>
  <g>
    <polyline style="fill: none; fill-opacity:0; stroke-width: 2; stroke: #000000" points="-12.45,65 -12.45,82 -11.45,82 -11.45,118 "/>
    <text font-size="9.6" style="fill: #000000;text-anchor:start;font-family:monospace;font-style:normal;font-weight:normal" x="-8.45" y="77">*</text>
    <text font-size="9.6" style="fill: #000000;text-anchor:start;font-family:monospace;font-style:normal;font-weight:normal" x="-7.45" y="114">1</text>
  </g>
  <g>
    <rect style="fill: #ffffff" x="-129" y="246" width="233.9" height="18"/>
    <rect style="fill: none; fill-opacity:0; stroke-width: 2; stroke: #000000" x="-129" y="246" width="233.9" height="18"/>
    <text font-size="11.2" style="fill: #000000;text-anchor:middle;font-family:sans-serif;font-style:normal;font-weight:700" x="-12.05" y="260">home_product</text>
    <rect style="fill: #ffffff" x="-129" y="264" width="233.9" height="84"/>
    <rect style="fill: none; fill-opacity:0; stroke-width: 2; stroke: #000000" x="-129" y="264" width="233.9" height="84"/>
    <polygon style="fill: #000000" points="-126,274 -124,277 -122,274 -124,271 "/>
    <text font-size="12.8" style="fill: #000000;text-anchor:start;font-family:monospace;font-style:normal;font-weight:normal" x="-120" y="280">(pk) homeproduct_id</text>
    <text font-size="12.8" style="fill: #000000;text-anchor:start;font-family:monospace;font-style:normal;font-weight:normal" x="44" y="280">INTEGER</text>
    <ellipse style="fill: #000000" cx="-124" cy="290" rx="2" ry="2"/>
    <text font-size="12.8" style="fill: #000000;text-anchor:start;font-family:monospace;font-style:normal;font-weight:normal" x="-120" y="296">(fk) home_id</text>
    <text font-size="12.8" style="fill: #000000;text-anchor:start;font-family:monospace;font-style:normal;font-weight:normal" x="44" y="296">INTEGER</text>
    <ellipse style="fill: #000000" cx="-124" cy="306" rx="2" ry="2"/>
    <text font-size="12.8" style="fill: #000000;text-anchor:start;font-family:monospace;font-style:normal;font-weight:normal" x="-120" y="312">(fk) product_id</text>
    <text font-size="12.8" style="fill: #000000;text-anchor:start;font-family:monospace;font-style:normal;font-weight:normal" x="44" y="312">INTEGER</text>
    <ellipse style="fill: #000000" cx="-124" cy="322" rx="2" ry="2"/>
    <text font-size="12.8" style="fill: #000000;text-anchor:start;font-family:monospace;font-style:normal;font-weight:normal" x="-120" y="328">desired_min_quantity</text>
    <text font-size="12.8" style="fill: #000000;text-anchor:start;font-family:monospace;font-style:normal;font-weight:normal" x="44" y="328">INTEGER</text>
    <ellipse style="fill: #000000" cx="-124" cy="338" rx="2" ry="2"/>
    <text font-size="12.8" style="fill: #000000;text-anchor:start;font-family:monospace;font-style:normal;font-weight:normal" x="-120" y="344">desired_max_quantity</text>
    <text font-size="12.8" style="fill: #000000;text-anchor:start;font-family:monospace;font-style:normal;font-weight:normal" x="44" y="344">INTEGER</text>
  </g>
  <g>
    <polyline style="fill: none; fill-opacity:0; stroke-width: 2; stroke: #000000" points="-11.45,172 -11.45,209 -12.05,209 -12.05,246 "/>
    <text font-size="9.6" style="fill: #000000;text-anchor:start;font-family:monospace;font-style:normal;font-weight:normal" x="-7.45" y="184">1</text>
    <text font-size="9.6" style="fill: #000000;text-anchor:start;font-family:monospace;font-style:normal;font-weight:normal" x="-8.05" y="242">*</text>
  </g>
  <g>
    <polyline style="fill: none; fill-opacity:0; stroke-width: 2; stroke: #000000" points="-12.05,348 -12.05,368 -11.05,368 -11.05,388 "/>
    <text font-size="9.6" style="fill: #000000;text-anchor:start;font-family:monospace;font-style:normal;font-weight:normal" x="-8.05" y="360">*</text>
    <text font-size="9.6" style="fill: #000000;text-anchor:start;font-family:monospace;font-style:normal;font-weight:normal" x="-7.05" y="384">1</text>
  </g>
  <g>
    <polyline style="fill: none; fill-opacity:0; stroke-width: 2; stroke: #000000" points="90.1,162 152.55,162 152.55,169 215,169 "/>
    <text font-size="9.6" style="fill: #000000;text-anchor:start;font-family:monospace;font-style:normal;font-weight:normal" x="94.1" y="158">1</text>
    <text font-size="9.6" style="fill: #000000;text-anchor:end;font-family:monospace;font-style:normal;font-weight:normal" x="211" y="165">*</text>
  </g>
  <g>
    <polyline style="fill: none; fill-opacity:0; stroke-width: 2; stroke: #000000" points="328.1,195 328.1,282 328.7,282 328.7,369 "/>
    <text font-size="9.6" style="fill: #000000;text-anchor:start;font-family:monospace;font-style:normal;font-weight:normal" x="332.1" y="207">1</text>
    <text font-size="9.6" style="fill: #000000;text-anchor:start;font-family:monospace;font-style:normal;font-weight:normal" x="332.7" y="365">*</text>
  </g>
  <g>
    <polyline style="fill: none; fill-opacity:0; stroke-width: 2; stroke: #000000" points="105.9,416 168.45,416 168.45,413 231,413 "/>
    <text font-size="9.6" style="fill: #000000;text-anchor:start;font-family:monospace;font-style:normal;font-weight:normal" x="109.9" y="412">1</text>
    <text font-size="9.6" style="fill: #000000;text-anchor:end;font-family:monospace;font-style:normal;font-weight:normal" x="227" y="409">*</text>
  </g>
</svg>
