<?xml version="1.0" encoding="UTF-8" standalone="no"?>
<!DOCTYPE svg PUBLIC "-//W3C//DTD SVG 1.0//EN" "http://www.w3.org/TR/2001/PR-SVG-20010719/DTD/svg10.dtd">
<svg width="38cm" height="25cm" viewBox="222 222 742 482" xmlns="http://www.w3.org/2000/svg" xmlns:xlink="http://www.w3.org/1999/xlink">
  <g>
    <ellipse style="fill: #ffffff" cx="248.2" cy="272" rx="6" ry="6"/>
    <ellipse style="fill: none; fill-opacity:0; stroke-width: 2; stroke: #000000" cx="248.2" cy="272" rx="6" ry="6"/>
    <line style="fill: none; fill-opacity:0; stroke-width: 2; stroke: #000000" x1="224.2" y1="284" x2="272.2" y2="284"/>
    <line style="fill: none; fill-opacity:0; stroke-width: 2; stroke: #000000" x1="248.2" y1="278" x2="248.2" y2="308"/>
    <line style="fill: none; fill-opacity:0; stroke-width: 2; stroke: #000000" x1="248.2" y1="308" x2="224.2" y2="334"/>
    <line style="fill: none; fill-opacity:0; stroke-width: 2; stroke: #000000" x1="248.2" y1="308" x2="272.2" y2="334"/>
    <text font-size="12.7998" style="fill: #000000;text-anchor:middle;font-family:sans-serif;font-style:normal;font-weight:normal" x="248.2" y="357.9">
      <tspan x="248.2" y="357.9">User</tspan>
    </text>
  </g>
  <g>
    <rect style="fill: #ffffff" x="410.888" y="300" width="59.85" height="38"/>
    <rect style="fill: none; fill-opacity:0; stroke-width: 2; stroke: #000000" x="410.888" y="300" width="59.85" height="38"/>
    <text font-size="12.7998" style="fill: #000000;text-anchor:middle;font-family:sans-serif;font-style:normal;font-weight:normal" x="440.813" y="322.9">
      <tspan x="440.813" y="322.9">Home</tspan>
    </text>
  </g>
  <g>
    <rect style="fill: #ffffff" x="529.006" y="345" width="72.15" height="38"/>
    <rect style="fill: none; fill-opacity:0; stroke-width: 2; stroke: #000000" x="529.006" y="345" width="72.15" height="38"/>
    <text font-size="12.7998" style="fill: #000000;text-anchor:middle;font-family:sans-serif;font-style:normal;font-weight:normal" x="565.081" y="367.9">
      <tspan x="565.081" y="367.9">Storage</tspan>
    </text>
  </g>
  <g>
    <rect style="fill: #ffffff" x="529.006" y="245.7" width="72.15" height="38"/>
    <rect style="fill: none; fill-opacity:0; stroke-width: 2; stroke: #000000" x="529.006" y="245.7" width="72.15" height="38"/>
    <text font-size="12.7998" style="fill: #000000;text-anchor:middle;font-family:sans-serif;font-style:normal;font-weight:normal" x="565.081" y="268.6">
      <tspan x="565.081" y="268.6">Storage</tspan>
    </text>
  </g>
  <g>
    <rect style="fill: #ffffff" x="410.888" y="542.7" width="59.85" height="38"/>
    <rect style="fill: none; fill-opacity:0; stroke-width: 2; stroke: #000000" x="410.888" y="542.7" width="59.85" height="38"/>
    <text font-size="12.7998" style="fill: #000000;text-anchor:middle;font-family:sans-serif;font-style:normal;font-weight:normal" x="440.813" y="565.6">
      <tspan x="440.813" y="565.6">Home</tspan>
    </text>
  </g>
  <g>
    <rect style="fill: #ffffff" x="529.006" y="542.7" width="72.15" height="38"/>
    <rect style="fill: none; fill-opacity:0; stroke-width: 2; stroke: #000000" x="529.006" y="542.7" width="72.15" height="38"/>
    <text font-size="12.7998" style="fill: #000000;text-anchor:middle;font-family:sans-serif;font-style:normal;font-weight:normal" x="565.081" y="565.6">
      <tspan x="565.081" y="565.6">Storage</tspan>
    </text>
  </g>
  <g>
    <rect style="fill: #ffffff" x="529.006" y="444.1" width="72.15" height="38"/>
    <rect style="fill: none; fill-opacity:0; stroke-width: 2; stroke: #000000" x="529.006" y="444.1" width="72.15" height="38"/>
    <text font-size="12.7998" style="fill: #000000;text-anchor:middle;font-family:sans-serif;font-style:normal;font-weight:normal" x="565.081" y="467">
      <tspan x="565.081" y="467">Storage</tspan>
    </text>
  </g>
  <g>
    <rect style="fill: #ffffff" x="529.006" y="641.7" width="72.15" height="38"/>
    <rect style="fill: none; fill-opacity:0; stroke-width: 2; stroke: #000000" x="529.006" y="641.7" width="72.15" height="38"/>
    <text font-size="12.7998" style="fill: #000000;text-anchor:middle;font-family:sans-serif;font-style:normal;font-weight:normal" x="565.081" y="664.6">
      <tspan x="565.081" y="664.6">Storage</tspan>
    </text>
  </g>
  <line style="fill: none; fill-opacity:0; stroke-width: 2; stroke: #000000" x1="470.738" y1="319" x2="529.006" y2="264.7"/>
  <line style="fill: none; fill-opacity:0; stroke-width: 2; stroke: #000000" x1="470.738" y1="319" x2="529.006" y2="364"/>
  <line style="fill: none; fill-opacity:0; stroke-width: 2; stroke: #000000" x1="470.738" y1="561.7" x2="529.006" y2="463.1"/>
  <line style="fill: none; fill-opacity:0; stroke-width: 2; stroke: #000000" x1="470.738" y1="561.7" x2="529.006" y2="561.7"/>
  <line style="fill: none; fill-opacity:0; stroke-width: 2; stroke: #000000" x1="470.738" y1="561.7" x2="529.006" y2="660.7"/>
  <line style="fill: none; fill-opacity:0; stroke-width: 2; stroke: #000000" x1="601.156" y1="364" x2="647.2" y2="363.7"/>
  <line style="fill: none; fill-opacity:0; stroke-width: 2; stroke: #000000" x1="601.156" y1="264.7" x2="647.2" y2="264.5"/>
  <line style="fill: none; fill-opacity:0; stroke-width: 2; stroke: #000000" x1="601.156" y1="463.1" x2="647.2" y2="462.9"/>
  <g>
    <g>
      <rect style="fill: #ffffff" x="647.2" y="223" width="95" height="83"/>
      <rect style="fill: none; fill-opacity:0; stroke-width: 2; stroke: #000000" x="647.2" y="223" width="95" height="83"/>
    </g>
    <g>
      <rect style="fill: #ffffff" x="674.625" y="256" width="51.15" height="38"/>
      <rect style="fill: none; fill-opacity:0; stroke-width: 2; stroke: #000000" x="674.625" y="256" width="51.15" height="38"/>
      <text font-size="12.7998" style="fill: #000000;text-anchor:middle;font-family:sans-serif;font-style:normal;font-weight:normal" x="700.2" y="278.9">
        <tspan x="700.2" y="278.9">Item</tspan>
      </text>
    </g>
    <g>
      <rect style="fill: #ffffff" x="665.9" y="245.7" width="51.15" height="38"/>
      <rect style="fill: none; fill-opacity:0; stroke-width: 2; stroke: #000000" x="665.9" y="245.7" width="51.15" height="38"/>
      <text font-size="12.7998" style="fill: #000000;text-anchor:middle;font-family:sans-serif;font-style:normal;font-weight:normal" x="691.475" y="268.6">
        <tspan x="691.475" y="268.6">Item</tspan>
      </text>
    </g>
    <g>
      <rect style="fill: #ffffff" x="657.6" y="235.4" width="51.15" height="38"/>
      <rect style="fill: none; fill-opacity:0; stroke-width: 2; stroke: #000000" x="657.6" y="235.4" width="51.15" height="38"/>
      <text font-size="12.7998" style="fill: #000000;text-anchor:middle;font-family:sans-serif;font-style:normal;font-weight:normal" x="683.175" y="258.3">
        <tspan x="683.175" y="258.3">Item</tspan>
      </text>
    </g>
  </g>
  <g>
    <g>
      <rect style="fill: #ffffff" x="647.2" y="322.2" width="95" height="83"/>
      <rect style="fill: none; fill-opacity:0; stroke-width: 2; stroke: #000000" x="647.2" y="322.2" width="95" height="83"/>
    </g>
    <g>
      <rect style="fill: #ffffff" x="674.625" y="355.2" width="51.15" height="38"/>
      <rect style="fill: none; fill-opacity:0; stroke-width: 2; stroke: #000000" x="674.625" y="355.2" width="51.15" height="38"/>
      <text font-size="12.7998" style="fill: #000000;text-anchor:middle;font-family:sans-serif;font-style:normal;font-weight:normal" x="700.2" y="378.1">
        <tspan x="700.2" y="378.1">Item</tspan>
      </text>
    </g>
    <g>
      <rect style="fill: #ffffff" x="665.9" y="344.9" width="51.15" height="38"/>
      <rect style="fill: none; fill-opacity:0; stroke-width: 2; stroke: #000000" x="665.9" y="344.9" width="51.15" height="38"/>
      <text font-size="12.7998" style="fill: #000000;text-anchor:middle;font-family:sans-serif;font-style:normal;font-weight:normal" x="691.475" y="367.8">
        <tspan x="691.475" y="367.8">Item</tspan>
      </text>
    </g>
    <g>
      <rect style="fill: #ffffff" x="657.6" y="334.6" width="51.15" height="38"/>
      <rect style="fill: none; fill-opacity:0; stroke-width: 2; stroke: #000000" x="657.6" y="334.6" width="51.15" height="38"/>
      <text font-size="12.7998" style="fill: #000000;text-anchor:middle;font-family:sans-serif;font-style:normal;font-weight:normal" x="683.175" y="357.5">
        <tspan x="683.175" y="357.5">Item</tspan>
      </text>
    </g>
  </g>
  <g>
    <g>
      <rect style="fill: #ffffff" x="647.2" y="421.4" width="95" height="83"/>
      <rect style="fill: none; fill-opacity:0; stroke-width: 2; stroke: #000000" x="647.2" y="421.4" width="95" height="83"/>
    </g>
    <g>
      <rect style="fill: #ffffff" x="674.625" y="454.4" width="51.15" height="38"/>
      <rect style="fill: none; fill-opacity:0; stroke-width: 2; stroke: #000000" x="674.625" y="454.4" width="51.15" height="38"/>
      <text font-size="12.7998" style="fill: #000000;text-anchor:middle;font-family:sans-serif;font-style:normal;font-weight:normal" x="700.2" y="477.3">
        <tspan x="700.2" y="477.3">Item</tspan>
      </text>
    </g>
    <g>
      <rect style="fill: #ffffff" x="665.9" y="444.1" width="51.15" height="38"/>
      <rect style="fill: none; fill-opacity:0; stroke-width: 2; stroke: #000000" x="665.9" y="444.1" width="51.15" height="38"/>
      <text font-size="12.7998" style="fill: #000000;text-anchor:middle;font-family:sans-serif;font-style:normal;font-weight:normal" x="691.475" y="467">
        <tspan x="691.475" y="467">Item</tspan>
      </text>
    </g>
    <g>
      <rect style="fill: #ffffff" x="657.6" y="433.8" width="51.15" height="38"/>
      <rect style="fill: none; fill-opacity:0; stroke-width: 2; stroke: #000000" x="657.6" y="433.8" width="51.15" height="38"/>
      <text font-size="12.7998" style="fill: #000000;text-anchor:middle;font-family:sans-serif;font-style:normal;font-weight:normal" x="683.175" y="456.7">
        <tspan x="683.175" y="456.7">Item</tspan>
      </text>
    </g>
  </g>
  <g>
    <g>
      <rect style="fill: #ffffff" x="647.2" y="520.6" width="95" height="83"/>
      <rect style="fill: none; fill-opacity:0; stroke-width: 2; stroke: #000000" x="647.2" y="520.6" width="95" height="83"/>
    </g>
    <g>
      <rect style="fill: #ffffff" x="674.625" y="553.6" width="51.15" height="38"/>
      <rect style="fill: none; fill-opacity:0; stroke-width: 2; stroke: #000000" x="674.625" y="553.6" width="51.15" height="38"/>
      <text font-size="12.7998" style="fill: #000000;text-anchor:middle;font-family:sans-serif;font-style:normal;font-weight:normal" x="700.2" y="576.5">
        <tspan x="700.2" y="576.5">Item</tspan>
      </text>
    </g>
    <g>
      <rect style="fill: #ffffff" x="665.9" y="543.3" width="51.15" height="38"/>
      <rect style="fill: none; fill-opacity:0; stroke-width: 2; stroke: #000000" x="665.9" y="543.3" width="51.15" height="38"/>
      <text font-size="12.7998" style="fill: #000000;text-anchor:middle;font-family:sans-serif;font-style:normal;font-weight:normal" x="691.475" y="566.2">
        <tspan x="691.475" y="566.2">Item</tspan>
      </text>
    </g>
    <g>
      <rect style="fill: #ffffff" x="657.6" y="533" width="51.15" height="38"/>
      <rect style="fill: none; fill-opacity:0; stroke-width: 2; stroke: #000000" x="657.6" y="533" width="51.15" height="38"/>
      <text font-size="12.7998" style="fill: #000000;text-anchor:middle;font-family:sans-serif;font-style:normal;font-weight:normal" x="683.175" y="555.9">
        <tspan x="683.175" y="555.9">Item</tspan>
      </text>
    </g>
  </g>
  <g>
    <g>
      <rect style="fill: #ffffff" x="647.2" y="619.8" width="95" height="83"/>
      <rect style="fill: none; fill-opacity:0; stroke-width: 2; stroke: #000000" x="647.2" y="619.8" width="95" height="83"/>
    </g>
    <g>
      <rect style="fill: #ffffff" x="674.625" y="652.8" width="51.15" height="38"/>
      <rect style="fill: none; fill-opacity:0; stroke-width: 2; stroke: #000000" x="674.625" y="652.8" width="51.15" height="38"/>
      <text font-size="12.7998" style="fill: #000000;text-anchor:middle;font-family:sans-serif;font-style:normal;font-weight:normal" x="700.2" y="675.7">
        <tspan x="700.2" y="675.7">Item</tspan>
      </text>
    </g>
    <g>
      <rect style="fill: #ffffff" x="665.9" y="642.5" width="51.15" height="38"/>
      <rect style="fill: none; fill-opacity:0; stroke-width: 2; stroke: #000000" x="665.9" y="642.5" width="51.15" height="38"/>
      <text font-size="12.7998" style="fill: #000000;text-anchor:middle;font-family:sans-serif;font-style:normal;font-weight:normal" x="691.475" y="665.4">
        <tspan x="691.475" y="665.4">Item</tspan>
      </text>
    </g>
    <g>
      <rect style="fill: #ffffff" x="657.6" y="632.2" width="51.15" height="38"/>
      <rect style="fill: none; fill-opacity:0; stroke-width: 2; stroke: #000000" x="657.6" y="632.2" width="51.15" height="38"/>
      <text font-size="12.7998" style="fill: #000000;text-anchor:middle;font-family:sans-serif;font-style:normal;font-weight:normal" x="683.175" y="655.1">
        <tspan x="683.175" y="655.1">Item</tspan>
      </text>
    </g>
  </g>
  <line style="fill: none; fill-opacity:0; stroke-width: 2; stroke: #000000" x1="601.156" y1="561.7" x2="647.2" y2="562.1"/>
  <line style="fill: none; fill-opacity:0; stroke-width: 2; stroke: #000000" x1="601.156" y1="660.7" x2="647.2" y2="661.3"/>
  <g>
    <g>
      <rect style="fill: #ffffff" x="834" y="406" width="129" height="117"/>
      <rect style="fill: none; fill-opacity:0; stroke-width: 2; stroke: #000000" x="834" y="406" width="129" height="117"/>
    </g>
    <g>
      <rect style="fill: #ffffff" x="878.7" y="469" width="70.6" height="38"/>
      <rect style="fill: none; fill-opacity:0; stroke-width: 2; stroke: #000000" x="878.7" y="469" width="70.6" height="38"/>
      <text font-size="12.7998" style="fill: #000000;text-anchor:middle;font-family:sans-serif;font-style:normal;font-weight:normal" x="914" y="491.9">
        <tspan x="914" y="491.9">Product</tspan>
      </text>
    </g>
    <g>
      <rect style="fill: #ffffff" x="870.7" y="459.7" width="70.6" height="38"/>
      <rect style="fill: none; fill-opacity:0; stroke-width: 2; stroke: #000000" x="870.7" y="459.7" width="70.6" height="38"/>
      <text font-size="12.7998" style="fill: #000000;text-anchor:middle;font-family:sans-serif;font-style:normal;font-weight:normal" x="906" y="482.6">
        <tspan x="906" y="482.6">Product</tspan>
      </text>
    </g>
    <g>
      <rect style="fill: #ffffff" x="863.4" y="445.4" width="70.6" height="38"/>
      <rect style="fill: none; fill-opacity:0; stroke-width: 2; stroke: #000000" x="863.4" y="445.4" width="70.6" height="38"/>
      <text font-size="12.7998" style="fill: #000000;text-anchor:middle;font-family:sans-serif;font-style:normal;font-weight:normal" x="898.7" y="468.3">
        <tspan x="898.7" y="468.3">Product</tspan>
      </text>
    </g>
    <g>
      <rect style="fill: #ffffff" x="853.7" y="433.7" width="70.6" height="38"/>
      <rect style="fill: none; fill-opacity:0; stroke-width: 2; stroke: #000000" x="853.7" y="433.7" width="70.6" height="38"/>
      <text font-size="12.7998" style="fill: #000000;text-anchor:middle;font-family:sans-serif;font-style:normal;font-weight:normal" x="889" y="456.6">
        <tspan x="889" y="456.6">Product</tspan>
      </text>
    </g>
    <g>
      <rect style="fill: #ffffff" x="846.7" y="422.7" width="70.6" height="38"/>
      <rect style="fill: none; fill-opacity:0; stroke-width: 2; stroke: #000000" x="846.7" y="422.7" width="70.6" height="38"/>
      <text font-size="12.7998" style="fill: #000000;text-anchor:middle;font-family:sans-serif;font-style:normal;font-weight:normal" x="882" y="445.6">
        <tspan x="882" y="445.6">Product</tspan>
      </text>
    </g>
  </g>
  <line style="fill: none; fill-opacity:0; stroke-width: 2; stroke: #000000" x1="742.2" y1="264.5" x2="834" y2="464.5"/>
  <line style="fill: none; fill-opacity:0; stroke-width: 2; stroke: #000000" x1="742.2" y1="363.7" x2="834" y2="464.5"/>
  <line style="fill: none; fill-opacity:0; stroke-width: 2; stroke: #000000" x1="742.2" y1="462.9" x2="834" y2="464.5"/>
  <line style="fill: none; fill-opacity:0; stroke-width: 2; stroke: #000000" x1="742.2" y1="562.1" x2="834" y2="464.5"/>
  <line style="fill: none; fill-opacity:0; stroke-width: 2; stroke: #000000" x1="742.2" y1="661.3" x2="834" y2="464.5"/>
  <g>
    <ellipse style="fill: #ffffff" cx="248.2" cy="412.2" rx="6" ry="6"/>
    <ellipse style="fill: none; fill-opacity:0; stroke-width: 2; stroke: #000000" cx="248.2" cy="412.2" rx="6" ry="6"/>
    <line style="fill: none; fill-opacity:0; stroke-width: 2; stroke: #000000" x1="224.2" y1="424.2" x2="272.2" y2="424.2"/>
    <line style="fill: none; fill-opacity:0; stroke-width: 2; stroke: #000000" x1="248.2" y1="418.2" x2="248.2" y2="448.2"/>
    <line style="fill: none; fill-opacity:0; stroke-width: 2; stroke: #000000" x1="248.2" y1="448.2" x2="224.2" y2="474.2"/>
    <line style="fill: none; fill-opacity:0; stroke-width: 2; stroke: #000000" x1="248.2" y1="448.2" x2="272.2" y2="474.2"/>
    <text font-size="12.7998" style="fill: #000000;text-anchor:middle;font-family:sans-serif;font-style:normal;font-weight:normal" x="248.2" y="498.1">
      <tspan x="248.2" y="498.1">User</tspan>
    </text>
  </g>
  <g>
    <ellipse style="fill: #ffffff" cx="248.2" cy="552.4" rx="6" ry="6"/>
    <ellipse style="fill: none; fill-opacity:0; stroke-width: 2; stroke: #000000" cx="248.2" cy="552.4" rx="6" ry="6"/>
    <line style="fill: none; fill-opacity:0; stroke-width: 2; stroke: #000000" x1="224.2" y1="564.4" x2="272.2" y2="564.4"/>
    <line style="fill: none; fill-opacity:0; stroke-width: 2; stroke: #000000" x1="248.2" y1="558.4" x2="248.2" y2="588.4"/>
    <line style="fill: none; fill-opacity:0; stroke-width: 2; stroke: #000000" x1="248.2" y1="588.4" x2="224.2" y2="614.4"/>
    <line style="fill: none; fill-opacity:0; stroke-width: 2; stroke: #000000" x1="248.2" y1="588.4" x2="272.2" y2="614.4"/>
    <text font-size="12.7998" style="fill: #000000;text-anchor:middle;font-family:sans-serif;font-style:normal;font-weight:normal" x="248.2" y="638.3">
      <tspan x="248.2" y="638.3">User</tspan>
    </text>
  </g>
  <line style="fill: none; fill-opacity:0; stroke-width: 2; stroke: #000000" x1="273.2" y1="308" x2="410.888" y2="309.5"/>
  <line style="fill: none; fill-opacity:0; stroke-width: 2; stroke: #000000" x1="273.2" y1="448.2" x2="410.888" y2="328.5"/>
  <line style="fill: none; fill-opacity:0; stroke-width: 2; stroke: #000000" x1="273.2" y1="448.2" x2="410.888" y2="552.2"/>
  <line style="fill: none; fill-opacity:0; stroke-width: 2; stroke: #000000" x1="273.2" y1="588.4" x2="410.888" y2="571.2"/>
</svg>
